<svg version="1.1" class="clearos-svg clearfoundation app-vendor-clearfoundation app-free app-category-server app-sub-category-messaging" viewBox="0 0 400 400" preserveAspectRatio="xMinYMin" xmlns="http://www.w3.org/2000/svg" xmlns:xlink= "http://www.w3.org/1999/xlink">
<path fill="#AA0707" d="M91.666,184.647"/>
<path fill="#AA0707" d="M123.245,247.805"/>
<path fill="#AA0707" d="M91.666,184.647"/>
<path fill="#AA0707" d="M123.245,247.805"/>
<g>
	<path fill="#686868" d="M397.035,245.112l-70.197-70.771c6.5-12.799,10.211-27.251,10.211-42.591
		c0-52.229-42.342-94.61-94.604-94.61c-52.276,0-94.625,42.365-94.625,94.61s42.366,94.61,94.625,94.61
		c16.389,0,31.793-4.168,45.197-11.517l69.391,69.914L397.035,245.112z M166.99,131.751c0-41.655,33.793-75.439,75.455-75.439
		c41.615,0,75.424,33.784,75.424,75.439c0,41.654-33.824,75.416-75.424,75.416C200.783,207.167,166.99,173.405,166.99,131.751z"/>
	<path fill="#686868" d="M322.676,265.228v75.277l-80.553-62.584l-8.807,11.373l79.262,61.584H26.216l79.238-61.584l-8.807-11.389
		l-80.521,62.566v-147.66h13.098l147.863,118.239l103.649-73.924l-3.772-2.692c-11.68,4.389-24.323,6.889-37.521,6.889
		c-59.55,0-107.778-48.277-107.778-107.79c0-0.741,0.112-1.468,0.112-2.2l-16.267-11.559L2.965,180.835V362.86h334.084v-83.115
		L322.676,265.228z"/>
</g>
</svg>
